# xmcd
#
# Track frame offsets: 
#        150
#        11834
#        21467
#        30101
#        39435
#        49778
#        60349
#        71923
#        84564
#        93328
#        103591
#        112927
#        123858
#        134911
#        144975
#        156201
#        168506
#        178979
#        189913
#        199302
#
# Disc length: 2811 seconds
#
# Revision: 0
# Processed by: cddbd v1.5.2PL0 Copyright (c) Steve Scherf et al.
# Submitted via: ExactAudioCopy v0.90b4
#
DISCID=130af914
DTITLE=Faron Young - 60 Greatest Hits and Favorites [CD3]
DYEAR=2012
DGENRE=Country
TTITLE0=Country Girl
TTITLE1=I Hear You Talkin'
TTITLE2=That's The Way It's Gotta Be
TTITLE3=I Made A Fool Of Myself
TTITLE4=Riverboat
TTITLE5=Face To The Wall
TTITLE6=Your Old Used To Be
TTITLE7=Is She All You Thought She'd Be
TTITLE8=There's Not Any Like You Left
TTITLE9=Forget The Past
TTITLE10=A World So Full Of Love
TTITLE11=Hello Walls
TTITLE12=Congratulations
TTITLE13=Big Shoes
TTITLE14=Believing It Yourself
TTITLE15=I Fall To Pieces
TTITLE16=A Moment Isn't Very Long
TTITLE17=Three Days
TTITLE18=Backtrack
TTITLE19=I Can't Find The Time
EXTD=
EXTT0=
EXTT1=
EXTT2=
EXTT3=
EXTT4=
EXTT5=
EXTT6=
EXTT7=
EXTT8=
EXTT9=
EXTT10=
EXTT11=
EXTT12=
EXTT13=
EXTT14=
EXTT15=
EXTT16=
EXTT17=
EXTT18=
EXTT19=
PLAYORDER=
